<svg enable-background="new 0 0 511.999 511.999" version="1.1" viewBox="0 0 512 512" xmlns="http://www.w3.org/2000/svg"><path d="m365.02 336.42c-13.781 7.992-29.82 12.608-47.078 12.608h-17.816c-24.746 0-44.809-20.063-44.809-44.809 0 24.746-20.063 44.809-44.809 44.809h-17.816c-17.257 0-33.308-4.616-47.089-12.608-31.776-18.465-51.459-54.935-45.949-94.357l4.27-30.558 11.468-81.995c4.873-34.895 22.242-65.33 47.19-87.036 5.03-4.381 10.372-8.394 15.972-12.027 22.209-14.396 48.62-22.667 76.764-22.667 28.636 0 55.483 8.562 77.927 23.427 32.805 21.717 56.21 56.858 61.999 98.302l11.49 82.207 4.247 30.346c5.509 39.423-14.185 75.905-45.961 94.358z" fill="#ccc"/><path d="m188.08 336.42c-31.776-18.465-51.459-54.935-45.949-94.357l4.27-30.558 11.468-81.995c4.873-34.895 22.242-65.33 47.19-87.036 5.03-4.381 10.372-8.394 15.972-12.027 16.526-10.713 35.382-18.026 55.546-21.071-6.944-1.051-14.042-1.596-21.254-1.596-28.144 0-54.555 8.271-76.764 22.667-5.6 3.633-10.942 7.645-15.972 12.027-24.947 21.706-42.316 52.141-47.19 87.036l-11.468 81.995-4.27 30.558c-5.51 39.422 14.173 75.892 45.949 94.357 13.781 7.992 29.832 12.608 47.089 12.608h17.816c3.447 0 6.798-0.402 10.021-1.139-11.709-1.824-22.657-5.788-32.454-11.469z" fill="#B3B3B3"/><path d="m272.1 224.09c19.035 0 30.938 20.599 21.415 37.086l-15.994 27.708c-9.869 17.09-34.526 17.09-44.395 0l-15.994-27.708c-9.523-16.486 2.381-37.086 21.404-37.086h33.564z" fill="#4D4D4D"/><g fill="#333"><path d="m368.44 174.42-13.535 14.921c-14.541 16.028-39.31 17.224-55.327 2.694l-14.921-13.535c11.702-12.91 27.797-19.459 43.948-19.459 14.217 0 28.479 5.074 39.835 15.379z"/><path d="m225.98 178.5-14.921 13.535c-16.028 14.53-40.796 13.334-55.327-2.694l-13.535-14.921c11.356-10.305 25.618-15.38 39.835-15.38 16.15 1e-3 32.245 6.55 43.948 19.46z"/></g><path d="m290.36 477.18c-2.794 7.332-8.93 13.267-16.877 15.48-0.302 0.089-0.715 0.179-1.207 0.268-6.65 1.297-12.641 4.851-16.956 10.082-4.303-5.231-10.305-8.785-16.944-10.082-0.503-0.089-0.917-0.179-1.218-0.268-7.925-2.213-14.061-8.137-16.866-15.469-2.302-6.002-2.37-12.954 0.648-19.56l2.917-6.371c1.364-2.973 2.023-6.147 2.023-9.277 0-2.191-0.324-4.37-0.95-6.46-1.017-3.364-2.828-6.505-5.387-9.132l12.932-13.055c3.13 2.705 7.198 4.337 11.647 4.337 4.247 0 8.137-1.487 11.199-3.957 3.063 2.47 6.952 3.957 11.199 3.957 4.448 0 8.528-1.632 11.647-4.337l12.932 13.055c-2.56 2.627-4.37 5.767-5.387 9.132-0.626 2.09-0.95 4.27-0.95 6.46 0 3.141 0.659 6.304 2.023 9.277l2.917 6.371c3.016 6.595 2.949 13.536 0.658 19.549z" fill="#EAB96C"/><g fill="#F95428"><path d="m225.88 441.98c0 3.13-0.659 6.304-2.023 9.277l-2.917 6.371c-3.018 6.606-2.951 13.558-0.648 19.56-20.242-2.984-40.17-8.562-59.283-16.743-12.898-5.521-25.439-12.217-37.432-20.096h-0.011v-42.294h0.011c12.965 8.528 26.568 15.67 40.584 21.415 19.616 8.059 40.059 13.413 60.759 16.05h0.011c0.625 2.09 0.949 4.27 0.949 6.46z"/><path d="m387.08 398.06v42.294h-0.011c-29.787 19.56-62.815 31.844-96.704 36.829 2.291-6.013 2.358-12.954-0.659-19.549l-2.917-6.371c-1.364-2.973-2.023-6.136-2.023-9.277 0-2.191 0.324-4.37 0.95-6.46h0.011c35.498-4.527 70.203-17.012 101.34-37.466h0.01z"/></g><path d="m387.07 398.06c-31.139 20.454-65.844 32.939-101.34 37.466h-0.011c1.017-3.364 2.828-6.505 5.387-9.132l-12.932-13.055c-3.118 2.705-7.198 4.337-11.647 4.337-4.247 0-8.137-1.487-11.199-3.957-3.063 2.47-6.952 3.957-11.199 3.957-4.448 0-8.517-1.632-11.647-4.337l-12.932 13.055c2.56 2.627 4.37 5.767 5.387 9.132h-0.011c-15.581-1.99-31.005-5.51-46.038-10.562-19.236-6.46-37.834-15.424-55.304-26.903h-0.011c6.617-11.043 11.904-24.657 16.084-38.594 2.314-7.712 4.281-15.514 5.957-23.047 12.194 7.064 26.154 11.501 41.165 12.418 1.956 0.134 3.934 0.19 5.924 0.19h17.816c24.746 0 44.809-20.063 44.809-44.809 0 24.746 20.063 44.809 44.809 44.809h17.816c17.257 0 33.297-4.616 47.078-12.608 1.677 7.533 3.655 15.335 5.969 23.047 4.181 13.936 9.456 27.561 16.073 38.593z" fill="#B3B3B3"/><path d="m155.57 15.769 22.991 14.676c-5.6 3.633-10.942 7.645-15.972 12.027-24.947 21.706-42.316 52.141-47.19 87.036l-11.468 81.995-24.299-14.005c-31.184-17.984-41.478-58.098-22.801-88.869l49.392-81.38c10.306-17.002 32.593-22.177 49.347-11.48z" fill="#808080"/><path d="m455.39 108.63c18.677 30.771 8.383 70.885-22.801 88.869l-24.299 14.005-1.554 0.212-11.49-82.207c-5.79-41.445-29.195-76.585-61.999-98.302l0.414-0.749 23.002-14.687c16.754-10.696 39.03-5.521 49.347 11.479l49.38 81.38z" fill="#E6E6E6"/><path d="m164.16 419.47-3.152 40.975c-12.898-5.521-25.439-12.217-37.432-20.096h-0.011v-42.294h0.011c12.966 8.528 26.568 15.67 40.584 21.415z" fill="#E54728"/><path d="m365.02 336.42c-13.781 7.992-29.82 12.608-47.078 12.608h-17.816c-24.746 0-44.809-20.063-44.809-44.809 0 24.746-20.063 44.809-44.809 44.809h-17.816c-1.99 0-3.968-0.056-5.924-0.19-15.011-0.917-28.971-5.354-41.165-12.418-4.694 21.136-11.758 44.496-22.041 61.642h0.011c17.47 11.479 36.068 20.443 55.304 26.903l5.133-49.517c2.857 0.26 5.751 0.405 8.682 0.405h17.816c24.746 0 44.809-20.063 44.809-44.809 0 24.746 20.063 44.809 44.809 44.809h17.816c17.257 0 33.297-4.616 47.078-12.608 2.045-1.185 4.035-2.448 5.969-3.778-2.314-7.712-4.293-15.514-5.969-23.047z" fill="#999"/><g fill="#fff"><circle cx="338.08" cy="171.49" r="8.383"/><circle cx="197.25" cy="171.49" r="8.383"/><circle cx="272.88" cy="248.99" r="8.383"/></g><path d="m263.66 461.14h-16.9c-4.63 0-8.383 3.753-8.383 8.383s3.753 8.383 8.383 8.383h16.9c4.63 0 8.383-3.753 8.383-8.383s-3.754-8.383-8.383-8.383z"/><path d="m263.66 440.49h-16.9c-4.63 0-8.383 3.753-8.383 8.383s3.753 8.383 8.383 8.383h16.9c4.63 0 8.383-3.753 8.383-8.383s-3.754-8.383-8.383-8.383z"/><path d="m462.45 104.88-49.382-81.381c-6.169-10.164-15.942-17.246-27.521-19.94s-23.48-0.655-33.503 5.745l-19.31 12.328c-23.351-14.17-50.023-21.637-77.521-21.637-27.144 0-53.545 7.293-76.707 21.141l-18.537-11.833c-10.028-6.401-21.932-8.439-33.519-5.742-11.578 2.697-21.347 9.779-27.505 19.938l-49.392 81.38c-10.211 16.825-13.142 36.59-8.252 55.656 4.891 19.07 16.977 34.989 34.034 44.826l19.402 11.183-3.489 24.956c-2.177 15.574-0.839 30.975 3.973 45.773 1.433 4.403 6.162 6.81 10.565 5.38 4.403-1.432 6.811-6.162 5.38-10.565-4.02-12.358-5.135-25.233-3.313-38.267l15.737-112.55c4.434-31.746 20.198-60.822 44.393-81.874 4.671-4.07 9.727-7.875 15.025-11.313 21.515-13.948 46.482-21.32 72.204-21.32 26.189 0 51.535 7.618 73.299 22.035 31.797 21.05 53.055 54.754 58.325 92.473l15.737 112.55c4.841 34.63-11.594 68.367-41.864 85.945-12.948 7.508-27.773 11.477-42.873 11.477h-17.814c-18.472 0-33.766-13.825-36.105-31.669 8.666-2.251 16.102-7.845 20.755-15.901l15.993-27.707c5.985-10.363 5.989-22.739 6e-3 -33.102-5.984-10.368-16.706-16.559-28.68-16.559h-33.565c-11.968 0-22.685 6.189-28.669 16.555-5.983 10.366-5.981 22.741 4e-3 33.103l15.994 27.708v1e-3c4.652 8.055 12.088 13.649 20.754 15.899-2.339 17.844-17.633 31.669-36.105 31.669h-17.816c-15.107 0-29.937-3.969-42.878-11.473-10.956-6.366-20.55-15.279-27.744-25.777-2.617-3.819-7.835-4.792-11.654-2.175-3.819 2.618-4.793 7.835-2.175 11.654 7.41 10.81 16.958 20.212 27.845 27.479-5.362 22.378-12.136 40.762-19.714 53.397-0.795 1.326-1.186 2.818-1.185 4.311h-9e-3v42.294c0 3.009 1.59 5.649 3.976 7.127 29.146 19.104 61.252 31.626 95.48 37.292 4.374 7.726 11.64 13.539 20.212 15.949 0.567 0.164 1.199 0.309 1.978 0.448 4.719 0.936 8.985 3.479 12.02 7.169 1.592 1.934 3.963 3.056 6.468 3.057h6e-3c2.503 0 4.874-1.118 6.467-3.049 3.06-3.711 7.356-6.264 11.99-7.168 0.8-0.145 1.443-0.292 2.011-0.456 8.585-2.406 15.856-8.221 20.227-15.952 13.772-2.283 27.4-5.732 40.569-10.293 4.375-1.514 6.693-6.289 5.177-10.665-1.516-4.375-6.288-6.693-10.665-5.177-10.007 3.465-20.296 6.245-30.711 8.308-0.164-4.361-1.186-8.697-3.064-12.8l-2.919-6.374c-0.704-1.537-1.098-3.163-1.211-4.84 29.96-4.634 59.145-14.866 85.499-29.923v22.764c-6.895 4.339-14.048 8.336-21.32 11.908-4.155 2.042-5.868 7.065-3.827 11.221 1.457 2.966 4.434 4.688 7.53 4.688 1.241 0 2.501-0.277 3.691-0.861 9.125-4.483 18.076-9.588 26.61-15.175 2.446-1.464 4.082-4.14 4.082-7.197v-42.294c0-0.06-0.015-0.117-0.02-0.177-0.029-1.414-0.407-2.838-1.184-4.133-7.676-12.806-14.298-30.758-19.715-53.4 32.782-21.762 50.244-60.116 44.746-99.451l-15.737-112.55c-5.368-38.425-25.47-73.147-55.759-96.967l13.385-8.546c6.188-3.951 13.533-5.211 20.682-3.546 7.147 1.663 13.18 6.033 16.987 12.308l49.382 81.381c7.852 12.935 10.105 28.132 6.345 42.791-3.761 14.663-13.054 26.903-26.168 34.466-4.01 2.313-5.386 7.439-3.074 11.45 1.553 2.691 4.371 4.196 7.27 4.196 1.421 0 2.861-0.362 4.18-1.122 17.054-9.836 29.141-25.754 34.032-44.825 4.89-19.063 1.959-38.829-8.252-55.652zm-305.48-68.133c-27.243 23.704-44.997 56.448-49.99 92.199l-9.744 69.689-13.532-7.799c-13.114-7.562-22.407-19.804-26.168-34.466-3.76-14.66-1.507-29.856 6.345-42.793l49.394-81.384c3.8-6.269 9.828-10.639 16.974-12.304 7.154-1.664 14.503-0.407 20.694 3.545l12.528 7.997c-2.222 1.726-4.404 3.49-6.501 5.316zm83.302 248.54-15.996-27.71c-2.955-5.115-2.956-11.223-3e-3 -16.338 2.954-5.117 8.243-8.172 14.149-8.172h33.565c5.913 0 11.206 3.056 14.16 8.175 2.952 5.114 2.951 11.221-6e-3 16.336l-15.994 27.707c-3.12 5.402-8.705 8.628-14.939 8.628s-11.817-3.224-14.936-8.626zm-108.44 128.32c26.346 15.054 55.53 25.285 85.498 29.92-0.115 1.67-0.515 3.327-1.21 4.843l-2.921 6.379c-1.877 4.109-2.897 8.445-3.06 12.802-27.862-5.499-54.14-15.955-78.307-31.181v-22.763zm150.58 61.188c-1.934 5.074-6.155 8.958-11.336 10.401-0.116 0.029-0.257 0.055-0.52 0.103-5.589 1.09-10.837 3.439-15.347 6.81-4.503-3.369-9.751-5.717-15.342-6.809-0.046-9e-3 -0.092-0.018-0.137-0.026-0.154-0.027-0.288-0.051-0.304-0.053-0.042-0.012-0.086-0.025-0.129-0.037-5.129-1.433-9.35-5.317-11.293-10.397-1.627-4.241-1.468-8.884 0.443-13.067l2.916-6.368c1.823-3.975 2.786-8.391 2.786-12.771 0-2.998-0.438-5.98-1.309-8.886-0.614-2.03-1.441-3.994-2.458-5.852l3.286-3.317c3.241 1.393 6.757 2.128 10.339 2.128 3.883 0 7.714-0.874 11.199-2.518 3.484 1.644 7.317 2.518 11.199 2.518 3.586 0 7.102-0.734 10.341-2.125l3.284 3.315c-1.018 1.863-1.848 3.832-2.465 5.871-0.864 2.886-1.303 5.868-1.303 8.866 0 4.443 0.937 8.739 2.784 12.768l2.916 6.369c1.913 4.176 2.072 8.82 0.45 13.077zm16.805-49.37c-0.3-1.586-1.058-3.103-2.278-4.334l-12.932-13.055c-3.107-3.136-8.113-3.326-11.449-0.434-1.7 1.474-3.886 2.286-6.154 2.286-2.756 0-4.75-1.141-5.936-2.098-3.07-2.477-7.453-2.477-10.525 0-1.187 0.957-3.181 2.099-5.937 2.099-2.899 0-4.953-1.248-6.165-2.296-3.336-2.883-8.335-2.69-11.436 0.443l-12.932 13.055c-1.221 1.232-1.978 2.748-2.279 4.336-26.992-5.247-53.111-15.329-76.584-29.634 6.359-12.428 11.91-28.013 16.581-46.503 12.96 5.717 27.072 8.716 41.39 8.716h17.816c18.803 0 35.348-9.817 44.809-24.585 9.461 14.768 26.005 24.585 44.809 24.585h17.816c14.313 0 28.422-2.998 41.383-8.717 4.681 18.507 10.233 34.093 16.581 46.508-23.48 14.301-49.598 24.383-76.578 29.628z"/><path d="m361.01 195.58 13.535-14.921c3.109-3.429 2.852-8.729-0.576-11.84-12.475-11.32-28.622-17.555-45.468-17.555-19.082 0-37.364 8.097-50.158 22.212-3.108 3.429-2.849 8.729 0.579 11.839l14.921 13.534c9.089 8.245 20.523 12.31 31.925 12.31 12.957 0 25.87-5.25 35.242-15.579zm-12.418-11.266c-11.406 12.572-30.915 13.523-43.486 2.118l-8.196-7.435c8.924-7.042 20.063-10.968 31.591-10.968 9.844 0 19.37 2.83 27.53 8.084l-7.439 8.201z"/><path d="m231.5 185.31c3.428-3.109 3.687-8.41 0.579-11.839-12.796-14.116-31.078-22.212-50.158-22.212-16.846 0-32.994 6.235-45.468 17.555-3.428 3.111-3.685 8.411-0.576 11.84l13.533 14.919c8.531 9.411 20.217 14.933 32.905 15.55 0.79 0.039 1.576 0.057 2.361 0.057 11.825 0 23.076-4.331 31.903-12.334l14.921-13.536zm-26.184 1.115c-6.095 5.526-13.968 8.356-22.188 7.95-8.213-0.398-15.776-3.972-21.299-10.065l-7.439-8.202c8.16-5.254 17.688-8.084 27.53-8.084 11.527 0 22.667 3.925 31.591 10.968l-8.195 7.433z"/><circle cx="160.35" cy="267.74" r="8.383"/><circle cx="160.35" cy="303.37" r="8.383"/><circle cx="186.86" cy="285.55" r="8.383"/><circle cx="323.58" cy="285.55" r="8.383"/><circle cx="350.08" cy="303.37" r="8.383"/><circle cx="350.08" cy="267.74" r="8.383"/></svg>
