<svg fill="#d78a31" version="1.1" viewBox="0 0 428 175" xmlns="http://www.w3.org/2000/svg"><g transform="matrix(.3539 0 0 .3539 6.1489 .27538)"><path d="m442.8 361.82c-8.8-25.1-29.31-37.82-49.11-50.12-17.23-10.71-33.5-20.83-44.14-39-29.33-50.33-45.44-80.7-93.49-80.7s-64.21 30.38-93.61 80.69c-10.65 18.21-27 28.35-44.25 39.08-19.8 12.31-40.27 25-49.1 50.05a78.06 78.06 0 0 0-5.1 28.29c0 40.74 32.45 73.89 68.4 73.89s83.31-18.13 123.76-18.13 87.15 18.13 123.55 18.13 68.29-33.15 68.29-73.89a78.3 78.3 0 0 0-5.2-28.29z"/><ellipse cx="72" cy="216" rx="56" ry="72"/><ellipse cx="184" cy="120" rx="56" ry="72"/><ellipse cx="328" cy="120" rx="56" ry="72"/><ellipse cx="440" cy="216" rx="56" ry="72"/></g><text x="204" y="116.50286" fill="#aa0000" font-family="'Bauhaus 93'" font-size="37.333px" style="font-variant-caps:normal;font-variant-east-asian:normal;font-variant-ligatures:normal;font-variant-numeric:normal" xml:space="preserve"><tspan x="204" y="116.50286" font-family="'Bauhaus 93'" font-size="40px" style="font-variant-caps:normal;font-variant-east-asian:normal;font-variant-ligatures:normal;font-variant-numeric:normal">My Pet Store</tspan></text></svg>
